<svg width="501" height="431" viewBox="0 0 501 431" fill="none" xmlns="http://www.w3.org/2000/svg">
<path d="M136.958 66.169C137.767 64.8868 138.601 63.6224 139.45 62.3687C139.611 62.1297 139.773 61.8909 139.936 61.6528C140.292 61.1334 140.651 60.6161 141.014 60.1018C141.366 59.6023 141.725 59.1078 142.084 58.6126C142.335 58.2667 142.581 57.9176 142.835 57.5741C143.45 56.7403 144.074 55.9118 144.708 55.0907C143.813 56.2482 142.944 57.4268 142.084 58.6126C141.725 59.1078 141.366 59.6023 141.014 60.1018C140.651 60.6161 140.292 61.1334 139.936 61.6528C124.082 84.8197 115.42 112.392 115.42 140.862C115.42 178.066 130.2 213.743 156.507 240.05C182.814 266.357 218.491 281.137 255.695 281.137C259.443 281.137 262.482 284.176 262.482 287.925C262.482 291.674 259.443 294.712 255.695 294.712C214.891 294.712 175.757 278.505 146.905 249.652C118.052 220.8 101.845 181.666 101.845 140.862C101.845 117.746 107.051 95.1675 116.807 74.6887C110.874 73.5719 104.752 72.9874 98.4951 72.9874C44.1666 72.9886 0.125 117.033 0.125 171.362C0.126049 219.102 34.1351 258.89 79.2462 267.841C79.224 272.802 79.2197 278.124 79.2197 283.851V314.624C79.2197 355.171 79.221 375.444 87.1119 390.931C94.0532 404.553 105.129 415.629 118.752 422.57C134.239 430.461 154.511 430.462 195.058 430.462H307.281C347.828 430.462 368.101 430.461 383.588 422.57C397.211 415.629 408.286 404.553 415.227 390.931C423.118 375.444 423.12 355.171 423.12 314.624V283.851C423.12 279.55 423.12 275.478 423.111 271.615C466.344 267.096 500.045 230.541 500.045 186.112C500.045 138.63 461.552 100.137 414.07 100.137C407.894 100.137 401.873 100.795 396.067 102.033C396.924 101.852 397.786 101.685 398.652 101.529L398.718 101.521C392.717 102.61 386.833 104.337 381.171 106.682C370.74 111.003 361.262 117.337 353.278 125.321C345.295 133.304 338.96 142.782 334.639 153.213C330.319 163.644 328.095 174.823 328.095 186.112C328.095 189.861 325.056 192.9 321.307 192.9C317.559 192.9 314.52 189.861 314.52 186.112C314.52 173.039 317.095 160.095 322.098 148.017C327.101 135.939 334.432 124.963 343.676 115.719C352.92 106.475 363.896 99.1438 375.974 94.1409C379.456 92.6987 383.011 91.4642 386.619 90.429C366.363 37.8763 315.388 0.587402 255.695 0.587402C245.845 0.587402 236.234 1.60773 226.958 3.53926C233.987 2.07628 241.209 1.14131 248.58 0.772998C220.001 2.22347 192.634 12.3763 170.1 29.7348C157.029 39.8192 145.79 52.1577 136.958 66.169Z" fill="#F9E9EC"/>
</svg>
